<?xml version="1.0" encoding="UTF-8" standalone="no"?>
<svg width="167px" height="40px" viewBox="0 0 167 40" version="1.1" xmlns="http://www.w3.org/2000/svg" xmlns:xlink="http://www.w3.org/1999/xlink">
    <!-- Generator: Sketch 3.8.3 (29802) - http://www.bohemiancoding.com/sketch -->
    <title>ZokuLogo</title>
    <desc>Created with Sketch.</desc>
    <defs></defs>
    <g id="Page-1" stroke="none" stroke-width="1" fill="none" fill-rule="evenodd">
        <g id="Artboard-4-Copy-2" transform="translate(-259.000000, -10.000000)">
            <g id="Page-1" transform="translate(259.000000, 10.000000)">
                <g id="ZokuLogo">
                    <path d="M8.00606667,36.0145333 L9.39473333,34.6258667 L8.00606667,36.0145333 Z M8.00606667,36.0145333 L7.4754,35.4838667 L4.38473333,32.3932 L2.81873333,30.8272 L12.4174,27.9005333 L9.4354,24.9185333 L10.8240667,23.5298667 L11.3960667,24.1018667 L14.5547333,27.2605333 L16.1340667,28.8398667 L6.52206667,31.7532 L9.39473333,34.6258667 L8.00606667,36.0145333 Z" id="Fill-1" fill="#255984"></path>
                    <polygon id="Fill-2" fill="#255984" points="0.0396 24.3529333 6.5976 25.0229333 1.80693333 29.8122667 3.17026667 31.1756 9.37026667 24.9922667 10.8249333 23.5302667 8.78093333 23.3236 0.0149333333 22.3996"></polygon>
                    <path d="M16.722,0.000133333333 L16.722,1.96413333 L20.7846667,1.96413333 L16.048,10.8208 L18.2813333,10.8208 L22.7486667,10.8208 L23.5573333,10.8208 L23.5573333,8.8568 L19.3406667,8.8568 L24.0573333,0.000133333333 L16.722,0.000133333333 Z M16.722,0.000133333333 L16.722,1.96413333 L16.722,0.000133333333 Z" id="Fill-3" fill="#255984"></path>
                    <polygon id="Fill-4" fill="#255984" points="23.5632 0.00253333333 23.5505333 8.75853333 23.5558667 10.8205333 25.1472 9.52186667 31.9998667 3.97653333 30.6012 2.6132 25.4898667 6.77653333 25.4912 0.00253333333"></polygon>
                    <path d="M35.9617333,31.6586 L34.5730667,30.2699333 L35.9617333,31.6586 Z M35.9617333,31.6586 L35.4310667,32.1892667 L32.3404,35.2799333 L30.7744,36.8459333 L27.8477333,27.2472667 L24.8657333,30.2292667 L23.4770667,28.8406 L24.0490667,28.2686 L27.2077333,25.1099333 L28.7870667,23.5306 L31.7004,33.1426 L34.5730667,30.2699333 L35.9617333,31.6586 Z" id="Fill-5" fill="#255984"></path>
                    <polygon id="Fill-6" fill="#255984" points="23.271 30.8833333 22.347 39.65 24.3003333 39.6253333 24.9703333 33.0666667 29.7596667 37.8573333 31.1223333 36.494 24.9396667 30.294 23.4783333 28.84"></polygon>
                    <path d="M0,17.7391333 L0,22.1098 L0,22.8604667 L1.964,22.8604667 L1.964,18.7984667 L10.8213333,23.5344667 L10.8213333,21.3004667 L10.8213333,16.8344667 L10.8213333,16.0258 L8.85666667,16.0258 L8.85666667,20.2418 L0,15.5244667 L0,17.7391333 Z M0,22.8604667 L1.964,22.8604667 L0,22.8604667 Z" id="Fill-7" fill="#255984"></path>
                    <polygon id="Fill-8" fill="#255984" points="2.613 8.98153333 6.77633333 14.0928667 0.00233333333 14.0915333 0.00233333333 16.0195333 8.75833333 16.0315333 10.8203333 16.0262 9.52166667 14.4348667 3.97633333 7.58286667"></polygon>
                    <path d="M31.5911333,3.6354 L30.2024667,5.02406667 L31.5911333,3.6354 Z M31.5911333,3.6354 L32.1218,4.16606667 L35.2124667,7.25673333 L36.7784667,8.82273333 L27.1798,11.7494 L30.1618,14.7314 L28.7731333,16.1200667 L28.2011333,15.5480667 L25.0424667,12.3894 L23.4631333,10.8100667 L33.0751333,7.89673333 L30.2024667,5.02406667 L31.5911333,3.6354 Z" id="Fill-9" fill="#255984"></path>
                    <polygon id="Fill-10" fill="#255984" points="37.7899333 9.83786667 32.9992667 14.6265333 39.5579333 15.2972 39.5826 17.2505333 30.8159333 16.3258667 28.7726 16.1192 30.2266 14.6572 36.4266 8.47453333"></polygon>
                    <polygon id="Fill-11" fill="#255984" points="21.3156 28.8289333 16.8482667 28.8289333 16.0402667 28.8289333 16.0402667 30.7936 20.2562667 30.7936 15.5396 39.6502667 17.7542667 39.6502667 22.1242667 39.6502667 22.8749333 39.6502667 22.8749333 37.6862667 22.8749333 39.6502667 22.8749333 37.6862667 18.8129333 37.6862667 23.5496 28.8289333"></polygon>
                    <polygon id="Fill-12" fill="#255984" points="14.4498 30.1285333 7.59713333 35.6738667 8.9958 37.0372 14.1078 32.8738667 14.1064667 39.6478667 16.0344667 39.6478667 16.0464667 30.8918667 16.0411333 28.8292"></polygon>
                    <path d="M3.6354,7.99133333 L5.02406667,9.38 L3.6354,7.99133333 Z M3.6354,7.99133333 L4.16606667,7.46066667 L7.25673333,4.37 L8.82273333,2.804 L11.7494,12.4026667 L14.7314,9.42066667 L16.1200667,10.8093333 L15.5480667,11.3813333 L12.3894,14.54 L10.8100667,16.1193333 L7.89673333,6.50733333 L5.02406667,9.38 L3.6354,7.99133333 Z" id="Fill-13" fill="#255984"></path>
                    <polygon id="Fill-14" fill="#255984" points="15.2966667 0.0248 14.6266667 6.58346667 9.83733333 1.79213333 8.47466667 3.15546667 14.6573333 9.35613333 16.1193333 10.8094667 16.326 8.76613333 17.25 0.000133333333"></polygon>
                    <path d="M39.5972,16.7893333 L37.6332,16.7893333 L39.5972,16.7893333 Z M39.5972,16.7893333 L39.5972,17.54 L39.5972,21.9106667 L39.5972,24.1253333 L30.7405333,19.408 L30.7405333,23.6246667 L28.7765333,23.6246667 L28.7765333,22.816 L28.7765333,18.3486667 L28.7765333,16.1153333 L37.6332,20.852 L37.6332,16.7893333 L39.5972,16.7893333 Z" id="Fill-15" fill="#255984"></path>
                    <polygon id="Fill-16" fill="#255984" points="39.5946 25.5583333 32.8206 25.557 36.9846 30.6683333 35.6206 32.067 30.0752667 25.215 28.7766 23.6236667 30.8386 23.6183333 39.5946 23.6303333"></polygon>
                    <path d="M121.8886,18.4028667 L120.2226,21.9635333 L121.8886,18.4028667 Z M120.2226,21.9635333 L123.619933,21.9635333 L121.8886,18.4028667 L120.2226,21.9635333 Z M125.1886,25.0995333 L118.719933,25.0995333 L116.759933,29.2808667 L113.101933,29.2808667 L120.321267,13.9928667 L121.823933,10.8242 L123.3586,13.9602 L130.9046,29.2808667 L127.245933,29.2808667 L125.1886,25.0995333 Z" id="Fill-17" fill="#6BA0D5"></path>
                    <path d="M134.3966,10.8893333 L131.065267,10.8893333 L134.3966,10.8893333 Z M134.3966,10.8893333 L134.3966,17.7166667 L134.3966,20.7873333 L134.3966,21.5713333 C134.3966,22.6166667 134.363933,23.662 134.723267,24.414 C134.9846,24.9686667 135.377267,25.426 135.899267,25.7526667 C136.389933,26.0793333 136.9446,26.2426667 137.5326,26.2426667 C138.055933,26.2426667 138.577933,26.112 139.0686,25.818 C139.5586,25.5573333 139.949933,25.1646667 140.2446,24.6746667 C140.733933,23.8906667 140.6686,22.8126667 140.6686,21.7353333 L140.6686,21.376 L140.6686,17.6846667 L140.6686,10.8893333 L144.033267,10.8893333 L144.033267,17.6846667 L144.033267,21.376 L144.033267,21.7353333 C144.033267,23.27 144.033267,24.8053333 143.1186,26.374 C142.497933,27.386 141.713933,28.17 140.733933,28.7253333 C139.787267,29.2813333 138.7086,29.5746667 137.5326,29.5746667 C136.2586,29.5746667 135.115933,29.248 134.0706,28.562 C132.991933,27.876 132.241267,26.994 131.685267,25.8506667 C130.967267,24.3806667 131.031933,22.9433333 131.031933,21.5386667 C131.065267,21.278 131.065267,21.016 131.065267,20.7873333 L131.065267,17.7166667 L131.065267,10.8893333 L134.3966,10.8893333 Z" id="Fill-18" fill="#6BA0D5"></path>
                    <path d="M149.758933,10.8893333 L146.426933,10.8893333 L149.758933,10.8893333 Z M149.758933,10.8893333 L149.758933,25.8833333 L155.900267,25.8833333 L155.900267,29.248 L149.758933,29.248 L149.758933,29.2813333 L146.426933,29.2813333 L146.426933,10.8893333 L149.758933,10.8893333 Z" id="Fill-20" fill="#6BA0D5"></path>
                    <path d="M155.8636,10.8893333 L155.8636,14.2213333 L155.8636,10.8893333 Z M155.8636,10.8893333 L166.250933,10.8893333 L166.250933,14.2213333 L162.658933,14.2213333 L162.658933,29.2813333 L159.326267,29.2813333 L159.326267,14.2213333 L155.8636,14.2213333 L155.8636,10.8893333 Z" id="Fill-22" fill="#6BA0D5"></path>
                    <path d="M44.5163333,11.0402 L44.5163333,14.3362 L44.5163333,11.0402 Z M44.5163333,11.0402 L45.7763333,11.0402 L53.1103333,11.0402 L56.8256667,11.0402 L48.9103333,25.9022 L55.9856667,25.9022 L55.9856667,29.1975333 L54.629,29.1975333 L47.1336667,29.1975333 L43.3856667,29.1975333 L51.3336667,14.3362 L44.5163333,14.3362 L44.5163333,11.0402 Z" id="Fill-24" fill="#255984"></path>
                    <path d="M66.3349333,13.7540667 C64.6222667,13.7540667 63.0709333,14.4647333 61.9082667,15.6287333 C60.7456,16.7914 60.0349333,18.3420667 60.0349333,20.0540667 C60.0349333,21.8314 60.7456,23.3500667 61.9082667,24.5134 C63.0396,25.6434 64.6222667,26.3540667 66.3349333,26.3540667 C68.1116,26.3540667 69.6296,25.6760667 70.7929333,24.5134 C71.9562667,23.3500667 72.6349333,21.8314 72.6349333,20.0540667 C72.6349333,18.3420667 71.9242667,16.7594 70.7929333,15.6287333 C69.6296,14.4647333 68.1116,13.7540667 66.3349333,13.7540667 M73.1196,13.2694 C74.8962667,15.0467333 75.9302667,17.3727333 75.9302667,20.0540667 C75.9302667,22.7360667 74.8962667,25.0620667 73.1196,26.8394 C71.3422667,28.6160667 69.0162667,29.6500667 66.3349333,29.6500667 C63.6536,29.6500667 61.3269333,28.6160667 59.5496,26.8394 C57.7729333,25.0620667 56.7389333,22.7360667 56.7389333,20.0540667 C56.7389333,17.3727333 57.7729333,15.0467333 59.5496,13.2694 C61.3269333,11.4927333 63.6536,10.4587333 66.3349333,10.4587333 C69.0162667,10.4587333 71.3422667,11.4927333 73.1196,13.2694" id="Fill-26" fill="#255984"></path>
                    <path d="M77.7586667,11.2016667 L81.054,11.2016667 L77.7586667,11.2016667 Z M81.054,11.2016667 L81.054,18.3103333 L86.062,11.2016667 L90.1006667,11.2016667 L83.7033333,20.313 L90.552,29.2296667 L86.3846667,29.2296667 L81.7,23.1556667 L81.054,24.061 L81.054,29.2296667 L77.7586667,29.2296667 L77.7586667,11.2016667 L81.054,11.2016667 Z" id="Fill-28" fill="#255984"></path>
                    <path d="M95.1715333,11.0402 L91.8768667,11.0402 L95.1715333,11.0402 Z M95.1715333,11.0402 L95.1715333,17.7928667 L95.1715333,20.8295333 L95.1715333,21.6048667 C95.1715333,22.6388667 95.1395333,23.6728667 95.4948667,24.4162 C95.7535333,24.9648667 96.1408667,25.4175333 96.6575333,25.7402 C97.1428667,26.0642 97.6915333,26.2255333 98.2728667,26.2255333 C98.7902,26.2255333 99.3068667,26.0955333 99.7922,25.8055333 C100.2762,25.5468667 100.6642,25.1588667 100.954867,24.6748667 C101.439533,23.8995333 101.374867,22.8328667 101.374867,21.7668667 L101.374867,21.4115333 L101.374867,17.7608667 L101.374867,11.0402 L104.702867,11.0402 L104.702867,17.7608667 L104.702867,21.4115333 L104.702867,21.7668667 C104.702867,23.2855333 104.702867,24.8035333 103.797533,26.3542 C103.184867,27.3562 102.4082,28.1315333 101.439533,28.6802 C100.502867,29.2302 99.4362,29.5208667 98.2728667,29.5208667 C97.0135333,29.5208667 95.8822,29.1975333 94.8488667,28.5188667 C93.7828667,27.8408667 93.0395333,26.9682 92.4908667,25.8375333 C91.7795333,24.3835333 91.8442,22.9622 91.8442,21.5728667 C91.8768667,21.3148667 91.8768667,21.0562 91.8768667,20.8295333 L91.8768667,17.7928667 L91.8768667,11.0402 L95.1715333,11.0402 Z" id="Fill-30" fill="#255984"></path>
                    <path d="M101.375133,11.0409333 L105.033133,11.0409333 L101.375133,11.0409333 Z M105.033133,11.0409333 L110.1298,21.6249333 L115.160467,11.0409333 L118.819133,11.0409333 L111.632467,26.0996 L110.1298,29.2689333 L108.594467,26.0996 L101.375133,11.0409333 L105.033133,11.0409333 Z" id="Fill-32" fill="#6BA0D5"></path>
                </g>
            </g>
        </g>
    </g>
</svg>